<?xml version="1.0" standalone="no"?>
<!DOCTYPE svg PUBLIC "-//W3C//DTD SVG 20010904//EN"
 "http://www.w3.org/TR/2001/REC-SVG-20010904/DTD/svg10.dtd">
<svg version="1.0" xmlns="http://www.w3.org/2000/svg"
 width="554.000000pt" height="554.000000pt" viewBox="0 0 554.000000 554.000000"
 preserveAspectRatio="xMidYMid meet">

<g transform="translate(0.000000,554.000000) scale(0.100000,-0.100000)"
fill="#000000" stroke="none">
<path d="M1352 4758 c-19 -19 -14 -47 11 -53 12 -3 182 -4 377 -3 l355 3 3 24
c2 13 -2 28 -10 32 -22 14 -722 11 -736 -3z"/>
<path d="M2335 4763 c-11 -2 -132 -56 -270 -120 -158 -73 -260 -126 -277 -144
-98 -103 -19 -279 125 -279 19 0 108 36 222 89 l190 89 92 -97 c51 -53 92 -98
93 -101 0 -3 -117 -78 -260 -168 l-261 -163 -132 -3 c-140 -4 -248 -26 -327
-66 l-41 -21 70 -132 c39 -73 74 -131 78 -130 4 1 27 9 51 18 113 40 259 38
376 -6 329 -122 459 -537 260 -826 -36 -52 -139 -153 -156 -153 -4 0 -8 -5 -8
-12 0 -18 134 -258 144 -258 20 0 138 94 195 157 74 80 119 152 160 255 50
123 62 196 59 334 -2 68 1 124 5 124 29 0 200 -46 203 -54 2 -6 -52 -155 -122
-331 -114 -290 -125 -325 -122 -371 3 -32 13 -63 28 -84 26 -36 90 -69 134
-70 39 0 113 36 132 65 17 26 324 804 344 873 21 69 -15 154 -78 186 -15 7
-156 44 -314 82 -159 38 -288 71 -288 75 0 3 93 63 208 134 114 71 215 135
226 144 47 40 74 135 57 198 -11 42 -15 46 -351 403 -75 80 -173 186 -219 235
-103 111 -160 143 -226 128z"/>
<path d="M3220 4611 c-71 -23 -141 -83 -176 -151 -27 -53 -26 -182 3 -236 35
-66 70 -101 130 -131 112 -54 258 -25 333 65 37 45 70 130 70 181 0 99 -66
208 -154 253 -44 23 -161 34 -206 19z"/>
<path d="M880 4595 c-6 -8 -10 -22 -8 -32 3 -17 28 -18 423 -21 381 -2 421 -1
432 14 9 12 9 22 2 35 -9 18 -30 19 -423 19 -349 0 -415 -2 -426 -15z"/>
<path d="M673 4442 c-26 -4 -38 -29 -22 -48 9 -12 99 -14 509 -14 524 0 531 1
514 44 -5 14 -56 16 -492 18 -268 2 -497 2 -509 0z"/>
<path d="M864 4265 c-4 -8 -4 -22 0 -30 5 -13 62 -15 431 -15 l426 0 -3 28 -3
27 -423 3 c-369 2 -423 0 -428 -13z"/>
<path d="M1337 4113 c-16 -16 -6 -53 16 -58 12 -3 181 -4 376 -3 313 3 355 5
364 19 6 9 7 24 4 33 -6 14 -43 16 -380 16 -206 0 -377 -3 -380 -7z"/>
<path d="M3202 3795 c-52 -37 -67 -114 -30 -160 35 -44 77 -56 196 -55 59 1
115 1 124 1 10 -1 50 -56 107 -152 l91 -151 -44 -51 c-102 -121 -153 -246
-163 -397 -16 -266 149 -525 399 -627 100 -40 217 -56 315 -43 91 12 183 38
183 52 0 5 -24 49 -52 99 -44 75 -56 89 -73 84 -11 -2 -49 -8 -85 -11 -214
-21 -413 136 -451 355 -18 98 17 236 78 310 l19 23 88 -147 c95 -159 122 -185
191 -185 77 0 135 59 135 137 0 29 -19 69 -86 181 -68 114 -84 146 -73 154 8
5 46 7 85 4 178 -11 326 -125 381 -294 26 -80 28 -147 7 -227 -20 -79 -53
-133 -120 -199 l-56 -55 52 -90 c29 -50 56 -91 60 -91 13 0 83 60 126 107 56
61 100 137 132 225 23 65 26 87 26 203 0 143 -15 204 -77 314 -41 73 -152 188
-221 230 -129 77 -285 111 -422 91 -43 -7 -87 -13 -97 -14 -13 -1 -50 51 -136
194 l-119 195 -233 3 c-200 2 -237 0 -257 -13z"/>
<path d="M3970 3756 c-94 -20 -133 -53 -128 -107 4 -47 65 -88 139 -96 l56 -5
2 105 c1 58 -2 107 -6 110 -4 2 -33 -1 -63 -7z"/>
<path d="M1291 3644 c-400 -371 -365 -998 74 -1322 78 -57 150 -93 255 -127
147 -47 367 -46 510 3 l49 17 -71 133 -72 133 -50 -8 c-87 -14 -216 -8 -279
12 -115 36 -233 126 -303 229 -40 59 -79 174 -89 261 -14 129 50 305 150 413
48 53 53 61 41 78 -7 10 -40 70 -72 131 -32 62 -62 113 -65 113 -4 0 -39 -30
-78 -66z"/>
<path d="M650 1524 c0 -184 4 -302 12 -332 14 -56 78 -125 134 -143 27 -9 136
-14 342 -16 l303 -4 -3 78 -3 78 -275 5 c-151 3 -283 9 -293 14 -10 5 -25 23
-35 40 -14 26 -17 71 -20 299 l-4 267 -79 0 -79 0 0 -286z"/>
<path d="M1545 1797 c-3 -6 -4 -181 -3 -387 l3 -375 83 -3 82 -3 0 391 0 390
-80 0 c-55 0 -82 -4 -85 -13z"/>
<path d="M1810 1799 c0 -10 53 -109 307 -569 41 -74 88 -148 104 -165 26 -27
36 -30 103 -33 121 -6 117 -10 256 243 222 405 280 514 280 525 0 7 -29 10
-91 8 l-90 -3 -164 -305 c-91 -168 -171 -306 -179 -308 -9 -2 -31 29 -62 85
-64 118 -103 190 -204 376 l-85 157 -87 0 c-59 0 -88 -4 -88 -11z"/>
<path d="M2960 1420 l0 -390 79 0 c94 0 93 -1 91 115 -1 44 -1 92 -1 108 l1
27 178 0 177 0 95 -125 95 -125 87 0 c48 0 90 4 93 10 3 5 -37 63 -90 128 -52
66 -95 121 -95 124 0 3 18 10 39 17 49 14 96 67 112 123 6 24 9 85 7 138 -5
120 -28 175 -91 211 l-42 24 -367 3 -368 3 0 -391z m653 229 c33 -15 47 -49
47 -114 0 -73 -15 -103 -59 -116 -22 -6 -123 -9 -254 -7 l-218 3 0 113 c0 61
0 117 1 122 0 14 452 13 483 -1z"/>
<path d="M4130 1801 c-53 -11 -116 -47 -139 -80 -37 -52 -51 -133 -51 -301 0
-238 28 -314 133 -361 51 -24 57 -24 372 -24 l320 0 3 73 3 72 -268 0 c-147 0
-286 5 -307 10 -59 13 -79 39 -84 110 l-4 60 326 0 326 0 0 65 0 65 -326 0
-326 0 4 55 c5 64 25 90 77 105 20 5 158 10 309 10 l273 0 -3 73 -3 72 -300 1
c-165 1 -316 -1 -335 -5z"/>
</g>
</svg>
